<?xml version="1.0" encoding="UTF-8" standalone="no"?>
<svg
   xmlns:dc="http://purl.org/dc/elements/1.1/"
   xmlns:cc="http://creativecommons.org/ns#"
   xmlns:rdf="http://www.w3.org/1999/02/22-rdf-syntax-ns#"
   xmlns:svg="http://www.w3.org/2000/svg"
   xmlns="http://www.w3.org/2000/svg"
   xmlns:sodipodi="http://sodipodi.sourceforge.net/DTD/sodipodi-0.dtd"
   xmlns:inkscape="http://www.inkscape.org/namespaces/inkscape"
   viewBox="0 0 461.91547 423.2329"
   height="423.23291"
   width="461.91547"
   xml:space="preserve"
   id="svg2"
   version="1.1"
   sodipodi:docname="cybozu_logo.svg"
   inkscape:version="0.92.3 (2405546, 2018-03-11)"><sodipodi:namedview
     pagecolor="#ffffff"
     bordercolor="#666666"
     borderopacity="1"
     objecttolerance="10"
     gridtolerance="10"
     guidetolerance="10"
     inkscape:pageopacity="0"
     inkscape:pageshadow="2"
     inkscape:window-width="1916"
     inkscape:window-height="1155"
     id="namedview253"
     showgrid="false"
     inkscape:zoom="0.84096496"
     inkscape:cx="144.64633"
     inkscape:cy="100.5053"
     inkscape:window-x="2560"
     inkscape:window-y="43"
     inkscape:window-maximized="0"
     inkscape:current-layer="g12"
     fit-margin-top="29.6"
     fit-margin-left="30"
     fit-margin-right="30"
     fit-margin-bottom="30" /><metadata
     id="metadata8"><rdf:RDF><cc:Work
         rdf:about=""><dc:format>image/svg+xml</dc:format><dc:type
           rdf:resource="http://purl.org/dc/dcmitype/StillImage" /><dc:title></dc:title></cc:Work></rdf:RDF></metadata><defs
     id="defs6"><clipPath
       id="clipPath18"
       clipPathUnits="userSpaceOnUse"><path
         id="path16"
         d="M 0,841.89 H 595.275 V 0 H 0 Z"
         inkscape:connector-curvature="0" /></clipPath></defs><g
     transform="matrix(1.3333333,0,0,-1.3333333,-162.42186,983.94331)"
     id="g10"><g
       id="g12"><g
         id="g20"
         transform="translate(343.8995,627.3303)"><path
           inkscape:connector-curvature="0"
           d="m 0,0 c -9.579,0 -17.344,-7.765 -17.344,-17.338 0,-9.576 7.765,-17.331 17.344,-17.331 9.563,0 17.325,7.755 17.325,17.331 C 17.325,-7.765 9.563,0 0,0 m 42.995,-17.338 c 0,-23.73 -19.232,-42.963 -42.957,-42.963 -23.73,0 -42.959,19.233 -42.959,42.963 0,23.727 19.229,42.96 42.959,42.96 23.725,0 42.957,-19.233 42.957,-42.96"
           style="fill:#92d0e1;fill-opacity:1;fill-rule:nonzero;stroke:none"
           id="path22" /></g><g
         id="g24"
         transform="translate(398.3976,695.4185)"><path
           inkscape:connector-curvature="0"
           d="m 0,0 c -5.928,0 -10.743,-4.809 -10.743,-10.75 0,-5.944 4.815,-10.756 10.743,-10.756 5.957,0 10.769,4.812 10.769,10.756 C 10.769,-4.809 5.957,0 0,0 m 26.699,-10.75 c 0,-14.728 -11.936,-26.664 -26.664,-26.664 -14.715,0 -26.657,11.936 -26.657,26.664 0,14.719 11.942,26.658 26.657,26.658 14.728,0 26.664,-11.939 26.664,-26.658"
           style="fill:#b1deea;fill-opacity:1;fill-rule:nonzero;stroke:none"
           id="path26" /></g><g
         id="g28"
         transform="translate(252.1903,674.9165)"><path
           inkscape:connector-curvature="0"
           d="m 0,0 c -15.254,0 -27.613,-12.362 -27.613,-27.607 0,-15.26 12.359,-27.632 27.613,-27.632 15.251,0 27.619,12.372 27.619,27.632 C 27.619,-12.362 15.251,0 0,0 m 68.527,-27.607 c 0,-37.814 -30.655,-68.459 -68.453,-68.459 -37.814,0 -68.467,30.645 -68.467,68.459 0,37.805 30.653,68.448 68.467,68.448 37.798,0 68.453,-30.643 68.453,-68.448"
           style="fill:#64bdd4;fill-opacity:1;fill-rule:nonzero;stroke:none"
           id="path30" /></g><g
         id="g32"
         transform="translate(172.2594,519.7965)"><path
           inkscape:connector-curvature="0"
           d="m 0,0 c 3.459,0 6.21,-0.933 7.544,-1.494 l 0.904,-0.378 2.593,9.098 -0.635,0.305 C 8.124,8.618 3.873,9.409 0.289,9.409 c -16.62,0 -28.232,-12.743 -28.232,-30.991 0,-18.884 9.807,-30.169 26.218,-30.169 4.569,0 9.003,0.853 11.859,2.251 l 0.564,0.289 -1.747,8.614 -0.942,-0.343 c -2.835,-1.048 -5.146,-1.504 -7.72,-1.504 -9.698,0 -15.488,7.801 -15.488,20.862 C -15.199,-10.846 -10.499,0 0,0"
           style="fill:#a7a5a6;fill-opacity:1;fill-rule:nonzero;stroke:none"
           id="path34" /></g><g
         id="g36"
         transform="translate(217.6011,494.3508)"><path
           inkscape:connector-curvature="0"
           d="m 0,0 c -0.91,-3.325 -1.712,-6.383 -2.327,-8.919 -0.045,0.192 -0.093,0.398 -0.132,0.593 -0.58,2.619 -1.186,5.344 -2.068,8.438 l -9.332,33.903 h -13.433 l 17.851,-54.633 c 0.237,-0.583 0.237,-1.208 0.237,-1.865 0,-0.686 -0.106,-1.177 -0.664,-2.575 -1.026,-2.484 -3.254,-6.434 -6.139,-9.454 -2.966,-3.148 -6.335,-5.681 -9.487,-7.111 l -0.772,-0.352 4.732,-9.343 0.74,0.295 c 1.113,0.44 6.967,2.931 12.776,9.073 8.483,9.073 13.244,23.596 17.389,37.677 L 21.018,34.015 H 8.31 Z"
           style="fill:#a7a5a6;fill-opacity:1;fill-rule:nonzero;stroke:none"
           id="path38" /></g><g
         id="g40"
         transform="translate(279.6973,498.6852)"><path
           inkscape:connector-curvature="0"
           d="m 0,0 c 0,-8.06 -1.452,-21.582 -11.198,-21.582 -3.023,0 -7.127,1.673 -9.541,9.694 -0.362,0.799 -0.362,2.059 -0.362,3.27 V 7.55 c 0,1.311 0,2.667 0.278,3.943 0.818,4.639 4.819,9.618 9.49,9.618 C -1.109,21.111 0,6.348 0,0 m -7.04,30.652 c -6.073,0 -10.696,-2.087 -14.061,-6.345 v 30.284 h -12.735 v -69.797 c 0,-2.786 -0.214,-6.957 -0.387,-10.297 -0.078,-1.35 -0.138,-2.597 -0.18,-3.559 l -0.038,-0.849 h 11.124 l 0.596,6.338 c 2.386,-3.684 6.165,-7.297 13.533,-7.297 10.913,0 21.922,9.695 21.922,31.354 0,18.322 -7.758,30.168 -19.774,30.168"
           style="fill:#a7a5a6;fill-opacity:1;fill-rule:nonzero;stroke:none"
           id="path42" /></g><g
         id="g44"
         transform="translate(323.9681,476.7565)"><path
           inkscape:connector-curvature="0"
           d="m 0,0 c -9.743,0 -11.195,13.67 -11.195,21.814 0,6.53 1.064,21.71 10.906,21.71 9.718,0 10.76,-15.18 10.76,-21.71 C 10.471,15.254 9.454,0 0,0 m 0.138,52.581 c -17.761,0 -24.064,-16.636 -24.064,-30.889 0,-22.593 12.061,-30.633 23.349,-30.633 11.038,0 23.929,8.053 23.929,30.755 0,22.678 -11.984,30.767 -23.214,30.767"
           style="fill:#a7a5a6;fill-opacity:1;fill-rule:nonzero;stroke:none"
           id="path46" /></g><g
         id="g48"
         transform="translate(354.9087,519.0782)"><path
           inkscape:connector-curvature="0"
           d="m 0,0 h 24.311 c -0.702,-1.125 -1.488,-2.299 -2.286,-3.501 -0.898,-1.353 -1.821,-2.741 -2.693,-4.135 l -21.929,-35.817 -0.125,-0.183 v -6.668 H 38.68 v 9.3 H 11.945 c 0.687,1.106 1.472,2.279 2.277,3.472 0.904,1.363 1.83,2.76 2.693,4.171 L 38.574,1.956 38.68,2.151 V 9.288 H 0 Z"
           style="fill:#a7a5a6;fill-opacity:1;fill-rule:nonzero;stroke:none"
           id="path50" /></g><g
         id="g52"
         transform="translate(445.727,469.6234)"><path
           inkscape:connector-curvature="0"
           d="M 0,0 C -0.045,1.423 -0.122,2.924 -0.205,4.536 -0.378,7.777 -0.574,11.455 -0.574,15.78 V 58.742 H -13.305 V 19.726 c 0,-2.071 -0.179,-3.731 -0.564,-5.11 -0.516,-2.414 -3.094,-7.005 -9.05,-7.005 -6.024,0 -8.47,4.344 -8.47,14.991 v 36.14 H -44.127 V 21.275 c 0,-15.754 5.643,-23.083 17.764,-23.083 6.524,0 11.657,3.084 14.543,6.149 l 0.615,-5.191 H 0.026 Z"
           style="fill:#a7a5a6;fill-opacity:1;fill-rule:nonzero;stroke:none"
           id="path54" /></g></g></g></svg>